<svg width="340" height="79" viewBox="0 0 340 79" fill="none" xmlns="http://www.w3.org/2000/svg">
<rect width="340" height="78.309" rx="2" fill="url(#paint0_linear_69_1864)"/>
<path d="M30 52V29.104H21.144V26.8H41.52V29.104H32.664V52H30ZM54.8839 32.92C56.4199 32.92 57.7639 33.22 58.9159 33.82C60.0919 34.396 61.0039 35.284 61.6519 36.484C62.3239 37.684 62.6599 39.196 62.6599 41.02V52H60.1039V41.272C60.1039 39.28 59.5999 37.78 58.5919 36.772C57.6079 35.74 56.2159 35.224 54.4159 35.224C53.0719 35.224 51.8959 35.5 50.8879 36.052C49.9039 36.58 49.1359 37.36 48.5839 38.392C48.0559 39.4 47.7919 40.624 47.7919 42.064V52H45.2359V25.288H47.7919V38.284L47.2879 37.312C47.8879 35.944 48.8479 34.876 50.1679 34.108C51.4879 33.316 53.0599 32.92 54.8839 32.92ZM77.592 52.18C75.624 52.18 73.896 51.772 72.408 50.956C70.92 50.116 69.756 48.976 68.916 47.536C68.076 46.072 67.656 44.404 67.656 42.532C67.656 40.66 68.052 39.004 68.844 37.564C69.66 36.124 70.764 34.996 72.156 34.18C73.572 33.34 75.156 32.92 76.908 32.92C78.684 32.92 80.256 33.328 81.624 34.144C83.016 34.936 84.108 36.064 84.9 37.528C85.692 38.968 86.088 40.636 86.088 42.532C86.088 42.652 86.076 42.784 86.052 42.928C86.052 43.048 86.052 43.18 86.052 43.324H69.6V41.416H84.684L83.676 42.172C83.676 40.804 83.376 39.592 82.776 38.536C82.2 37.456 81.408 36.616 80.4 36.016C79.392 35.416 78.228 35.116 76.908 35.116C75.612 35.116 74.448 35.416 73.416 36.016C72.384 36.616 71.58 37.456 71.004 38.536C70.428 39.616 70.14 40.852 70.14 42.244V42.64C70.14 44.08 70.452 45.352 71.076 46.456C71.724 47.536 72.612 48.388 73.74 49.012C74.892 49.612 76.2 49.912 77.664 49.912C78.816 49.912 79.884 49.708 80.868 49.3C81.876 48.892 82.74 48.268 83.46 47.428L84.9 49.084C84.06 50.092 83.004 50.86 81.732 51.388C80.484 51.916 79.104 52.18 77.592 52.18ZM91.1106 52V26.8H94.9626L110.767 46.204H108.859V26.8H113.503V52H109.651L93.8466 32.596H95.7546V52H91.1106ZM131.667 52V48.112L131.415 47.284V40.48C131.415 39.16 131.019 38.14 130.227 37.42C129.435 36.676 128.235 36.304 126.627 36.304C125.547 36.304 124.479 36.472 123.423 36.808C122.391 37.144 121.515 37.612 120.795 38.212L119.031 34.936C120.063 34.144 121.287 33.556 122.703 33.172C124.143 32.764 125.631 32.56 127.167 32.56C129.951 32.56 132.099 33.232 133.611 34.576C135.147 35.896 135.915 37.948 135.915 40.732V52H131.667ZM125.619 52.252C124.179 52.252 122.919 52.012 121.839 51.532C120.759 51.028 119.919 50.344 119.319 49.48C118.743 48.592 118.455 47.596 118.455 46.492C118.455 45.412 118.707 44.44 119.211 43.576C119.739 42.712 120.591 42.028 121.767 41.524C122.943 41.02 124.503 40.768 126.447 40.768H132.027V43.756H126.771C125.235 43.756 124.203 44.008 123.675 44.512C123.147 44.992 122.883 45.592 122.883 46.312C122.883 47.128 123.207 47.776 123.855 48.256C124.503 48.736 125.403 48.976 126.555 48.976C127.659 48.976 128.643 48.724 129.507 48.22C130.395 47.716 131.031 46.972 131.415 45.988L132.171 48.688C131.739 49.816 130.959 50.692 129.831 51.316C128.727 51.94 127.323 52.252 125.619 52.252ZM148.926 52.252C146.814 52.252 145.182 51.712 144.03 50.632C142.878 49.528 142.302 47.908 142.302 45.772V28.528H146.802V45.664C146.802 46.576 147.03 47.284 147.486 47.788C147.966 48.292 148.626 48.544 149.466 48.544C150.474 48.544 151.314 48.28 151.986 47.752L153.246 50.956C152.718 51.388 152.07 51.712 151.302 51.928C150.534 52.144 149.742 52.252 148.926 52.252ZM139.134 36.52V32.92H151.95V36.52H139.134ZM165.084 52.252C163.452 52.252 162.012 51.952 160.764 51.352C159.516 50.728 158.544 49.792 157.848 48.544C157.152 47.272 156.804 45.676 156.804 43.756V32.776H161.304V43.144C161.304 44.872 161.688 46.168 162.456 47.032C163.248 47.872 164.364 48.292 165.804 48.292C166.86 48.292 167.772 48.076 168.54 47.644C169.332 47.212 169.944 46.564 170.376 45.7C170.832 44.836 171.06 43.768 171.06 42.496V32.776H175.56V52H171.276V46.816L172.032 48.4C171.384 49.648 170.436 50.608 169.188 51.28C167.94 51.928 166.572 52.252 165.084 52.252ZM181.452 52V32.776H185.736V38.068L185.232 36.52C185.808 35.224 186.708 34.24 187.932 33.568C189.18 32.896 190.728 32.56 192.576 32.56V36.844C192.384 36.796 192.204 36.772 192.036 36.772C191.868 36.748 191.7 36.736 191.532 36.736C189.828 36.736 188.472 37.24 187.464 38.248C186.456 39.232 185.952 40.708 185.952 42.676V52H181.452ZM205.254 52.252C203.118 52.252 201.246 51.832 199.638 50.992C198.054 50.128 196.818 48.952 195.93 47.464C195.066 45.976 194.634 44.284 194.634 42.388C194.634 40.468 195.054 38.776 195.894 37.312C196.758 35.824 197.934 34.66 199.422 33.82C200.934 32.98 202.65 32.56 204.57 32.56C206.442 32.56 208.11 32.968 209.574 33.784C211.038 34.6 212.19 35.752 213.03 37.24C213.87 38.728 214.29 40.48 214.29 42.496C214.29 42.688 214.278 42.904 214.254 43.144C214.254 43.384 214.242 43.612 214.218 43.828H198.198V40.84H211.842L210.078 41.776C210.102 40.672 209.874 39.7 209.394 38.86C208.914 38.02 208.254 37.36 207.414 36.88C206.598 36.4 205.65 36.16 204.57 36.16C203.466 36.16 202.494 36.4 201.654 36.88C200.838 37.36 200.19 38.032 199.71 38.896C199.254 39.736 199.026 40.732 199.026 41.884V42.604C199.026 43.756 199.29 44.776 199.818 45.664C200.346 46.552 201.09 47.236 202.05 47.716C203.01 48.196 204.114 48.436 205.362 48.436C206.442 48.436 207.414 48.268 208.278 47.932C209.142 47.596 209.91 47.068 210.582 46.348L212.994 49.12C212.13 50.128 211.038 50.908 209.718 51.46C208.422 51.988 206.934 52.252 205.254 52.252ZM223.328 38.392H235.892V42.352H223.328V38.392ZM223.724 52H219.044V26.8H237.44V30.724H223.724V52ZM241.182 52V32.776H245.466V38.068L244.962 36.52C245.538 35.224 246.438 34.24 247.662 33.568C248.91 32.896 250.458 32.56 252.306 32.56V36.844C252.114 36.796 251.934 36.772 251.766 36.772C251.598 36.748 251.43 36.736 251.262 36.736C249.558 36.736 248.202 37.24 247.194 38.248C246.186 39.232 245.682 40.708 245.682 42.676V52H241.182ZM264.984 52.252C262.848 52.252 260.976 51.832 259.368 50.992C257.784 50.128 256.548 48.952 255.66 47.464C254.796 45.976 254.364 44.284 254.364 42.388C254.364 40.468 254.784 38.776 255.624 37.312C256.488 35.824 257.664 34.66 259.152 33.82C260.664 32.98 262.38 32.56 264.3 32.56C266.172 32.56 267.84 32.968 269.304 33.784C270.768 34.6 271.92 35.752 272.76 37.24C273.6 38.728 274.02 40.48 274.02 42.496C274.02 42.688 274.008 42.904 273.984 43.144C273.984 43.384 273.972 43.612 273.948 43.828H257.928V40.84H271.572L269.808 41.776C269.832 40.672 269.604 39.7 269.124 38.86C268.644 38.02 267.984 37.36 267.144 36.88C266.328 36.4 265.38 36.16 264.3 36.16C263.196 36.16 262.224 36.4 261.384 36.88C260.568 37.36 259.92 38.032 259.44 38.896C258.984 39.736 258.756 40.732 258.756 41.884V42.604C258.756 43.756 259.02 44.776 259.548 45.664C260.076 46.552 260.82 47.236 261.78 47.716C262.74 48.196 263.844 48.436 265.092 48.436C266.172 48.436 267.144 48.268 268.008 47.932C268.872 47.596 269.64 47.068 270.312 46.348L272.724 49.12C271.86 50.128 270.768 50.908 269.448 51.46C268.152 51.988 266.664 52.252 264.984 52.252ZM284.283 52.252C282.675 52.252 281.127 52.048 279.639 51.64C278.175 51.208 277.011 50.692 276.147 50.092L277.875 46.672C278.739 47.224 279.771 47.68 280.971 48.04C282.171 48.4 283.371 48.58 284.571 48.58C285.987 48.58 287.007 48.388 287.631 48.004C288.279 47.62 288.603 47.104 288.603 46.456C288.603 45.928 288.387 45.532 287.955 45.268C287.523 44.98 286.959 44.764 286.263 44.62C285.567 44.476 284.787 44.344 283.923 44.224C283.083 44.104 282.231 43.948 281.367 43.756C280.527 43.54 279.759 43.24 279.063 42.856C278.367 42.448 277.803 41.908 277.371 41.236C276.939 40.564 276.723 39.676 276.723 38.572C276.723 37.348 277.071 36.292 277.767 35.404C278.463 34.492 279.435 33.796 280.683 33.316C281.955 32.812 283.455 32.56 285.183 32.56C286.479 32.56 287.787 32.704 289.107 32.992C290.427 33.28 291.519 33.688 292.383 34.216L290.655 37.636C289.743 37.084 288.819 36.712 287.883 36.52C286.971 36.304 286.059 36.196 285.147 36.196C283.779 36.196 282.759 36.4 282.087 36.808C281.439 37.216 281.115 37.732 281.115 38.356C281.115 38.932 281.331 39.364 281.763 39.652C282.195 39.94 282.759 40.168 283.455 40.336C284.151 40.504 284.919 40.648 285.759 40.768C286.623 40.864 287.475 41.02 288.315 41.236C289.155 41.452 289.923 41.752 290.619 42.136C291.339 42.496 291.915 43.012 292.347 43.684C292.779 44.356 292.995 45.232 292.995 46.312C292.995 47.512 292.635 48.556 291.915 49.444C291.219 50.332 290.223 51.028 288.927 51.532C287.631 52.012 286.083 52.252 284.283 52.252ZM307.778 32.56C309.314 32.56 310.682 32.86 311.882 33.46C313.106 34.06 314.066 34.984 314.762 36.232C315.458 37.456 315.806 39.04 315.806 40.984V52H311.306V41.56C311.306 39.856 310.898 38.584 310.082 37.744C309.29 36.904 308.174 36.484 306.734 36.484C305.678 36.484 304.742 36.7 303.926 37.132C303.11 37.564 302.474 38.212 302.018 39.076C301.586 39.916 301.37 40.984 301.37 42.28V52H296.87V25.288H301.37V37.96L300.398 36.376C301.07 35.152 302.042 34.216 303.314 33.568C304.61 32.896 306.098 32.56 307.778 32.56Z" fill="white"/>
<defs>
<linearGradient id="paint0_linear_69_1864" x1="-99.6914" y1="39.1545" x2="425" y2="39.1545" gradientUnits="userSpaceOnUse">
<stop stop-color="#F09453"/>
<stop offset="1" stop-color="#6D2F17"/>
</linearGradient>
</defs>
</svg>
