<svg width="815" height="188" viewBox="0 0 815 188" fill="none" xmlns="http://www.w3.org/2000/svg">
<rect width="814.911" height="187.691" rx="2" fill="url(#paint0_linear_95_2)"/>
<path opacity="0.7" d="M72.5 70.76H50.36V65H101.3V70.76H79.16V128H72.5V70.76ZM134.71 80.3C140.65 80.3 145.36 82.04 148.84 85.52C152.38 88.94 154.15 93.95 154.15 100.55V128H147.76V101.18C147.76 96.26 146.53 92.51 144.07 89.93C141.61 87.35 138.1 86.06 133.54 86.06C128.44 86.06 124.39 87.59 121.39 90.65C118.45 93.65 116.98 97.82 116.98 103.16V128H110.59V61.22H116.98V88.94C118.72 86.18 121.12 84.05 124.18 82.55C127.24 81.05 130.75 80.3 134.71 80.3ZM212.894 106.31H173.294C173.654 111.23 175.544 115.22 178.964 118.28C182.384 121.28 186.704 122.78 191.924 122.78C194.864 122.78 197.564 122.27 200.024 121.25C202.484 120.17 204.614 118.61 206.414 116.57L210.014 120.71C207.914 123.23 205.274 125.15 202.094 126.47C198.974 127.79 195.524 128.45 191.744 128.45C186.884 128.45 182.564 127.43 178.784 125.39C175.064 123.29 172.154 120.41 170.054 116.75C167.954 113.09 166.904 108.95 166.904 104.33C166.904 99.71 167.894 95.57 169.874 91.91C171.914 88.25 174.674 85.4 178.154 83.36C181.694 81.32 185.654 80.3 190.034 80.3C194.414 80.3 198.344 81.32 201.824 83.36C205.304 85.4 208.034 88.25 210.014 91.91C211.994 95.51 212.984 99.65 212.984 104.33L212.894 106.31ZM190.034 85.79C185.474 85.79 181.634 87.26 178.514 90.2C175.454 93.08 173.714 96.86 173.294 101.54H206.864C206.444 96.86 204.674 93.08 201.554 90.2C198.494 87.26 194.654 85.79 190.034 85.79ZM281.52 65V128H271.89L237.15 85.34V128H225.54V65H235.17L269.91 107.66V65H281.52ZM315.681 79.4C322.761 79.4 328.161 81.11 331.881 84.53C335.661 87.89 337.551 92.99 337.551 99.83V128H326.931V122.15C325.551 124.25 323.571 125.87 320.991 127.01C318.471 128.09 315.411 128.63 311.811 128.63C308.211 128.63 305.061 128.03 302.361 126.83C299.661 125.57 297.561 123.86 296.061 121.7C294.621 119.48 293.901 116.99 293.901 114.23C293.901 109.91 295.491 106.46 298.671 103.88C301.911 101.24 306.981 99.92 313.881 99.92H326.301V99.2C326.301 95.84 325.281 93.26 323.241 91.46C321.261 89.66 318.291 88.76 314.331 88.76C311.631 88.76 308.961 89.18 306.321 90.02C303.741 90.86 301.551 92.03 299.751 93.53L295.341 85.34C297.861 83.42 300.891 81.95 304.431 80.93C307.971 79.91 311.721 79.4 315.681 79.4ZM314.151 120.44C316.971 120.44 319.461 119.81 321.621 118.55C323.841 117.23 325.401 115.37 326.301 112.97V107.39H314.691C308.211 107.39 304.971 109.52 304.971 113.78C304.971 115.82 305.781 117.44 307.401 118.64C309.021 119.84 311.271 120.44 314.151 120.44ZM380.879 125.39C379.559 126.47 377.939 127.28 376.019 127.82C374.159 128.36 372.179 128.63 370.079 128.63C364.799 128.63 360.719 127.25 357.839 124.49C354.959 121.73 353.519 117.71 353.519 112.43V89.3H345.599V80.3H353.519V69.32H364.769V80.3H377.639V89.3H364.769V112.16C364.769 114.5 365.339 116.3 366.479 117.56C367.619 118.76 369.269 119.36 371.429 119.36C373.949 119.36 376.049 118.7 377.729 117.38L380.879 125.39ZM436.664 79.94V128H425.954V121.88C424.154 124.04 421.904 125.72 419.204 126.92C416.504 128.06 413.594 128.63 410.474 128.63C404.054 128.63 398.984 126.86 395.264 123.32C391.604 119.72 389.774 114.41 389.774 107.39V79.94H401.024V105.86C401.024 110.18 401.984 113.42 403.904 115.58C405.884 117.68 408.674 118.73 412.274 118.73C416.294 118.73 419.474 117.5 421.814 115.04C424.214 112.52 425.414 108.92 425.414 104.24V79.94H436.664ZM462.104 86.96C465.344 81.92 471.044 79.4 479.204 79.4V90.11C478.244 89.93 477.374 89.84 476.594 89.84C472.214 89.84 468.794 91.13 466.334 93.71C463.874 96.23 462.644 99.89 462.644 104.69V128H451.394V79.94H462.104V86.96ZM533.488 104.24C533.488 105.02 533.428 106.13 533.308 107.57H495.598C496.258 111.11 497.968 113.93 500.728 116.03C503.548 118.07 507.028 119.09 511.168 119.09C516.448 119.09 520.798 117.35 524.218 113.87L530.248 120.8C528.088 123.38 525.358 125.33 522.058 126.65C518.758 127.97 515.038 128.63 510.898 128.63C505.618 128.63 500.968 127.58 496.948 125.48C492.928 123.38 489.808 120.47 487.588 116.75C485.428 112.97 484.348 108.71 484.348 103.97C484.348 99.29 485.398 95.09 487.498 91.37C489.658 87.59 492.628 84.65 496.408 82.55C500.188 80.45 504.448 79.4 509.188 79.4C513.868 79.4 518.038 80.45 521.698 82.55C525.418 84.59 528.298 87.5 530.338 91.28C532.438 95 533.488 99.32 533.488 104.24ZM509.188 88.4C505.588 88.4 502.528 89.48 500.008 91.64C497.548 93.74 496.048 96.56 495.508 100.1H522.778C522.298 96.62 520.828 93.8 518.368 91.64C515.908 89.48 512.848 88.4 509.188 88.4ZM586.594 128L573.724 109.55C573.184 109.61 572.374 109.64 571.294 109.64H557.074V128H545.374V65H571.294C576.754 65 581.494 65.9 585.514 67.7C589.594 69.5 592.714 72.08 594.874 75.44C597.034 78.8 598.114 82.79 598.114 87.41C598.114 92.15 596.944 96.23 594.604 99.65C592.324 103.07 589.024 105.62 584.704 107.3L599.194 128H586.594ZM586.324 87.41C586.324 83.39 585.004 80.3 582.364 78.14C579.724 75.98 575.854 74.9 570.754 74.9H557.074V100.01H570.754C575.854 100.01 579.724 98.93 582.364 96.77C585.004 94.55 586.324 91.43 586.324 87.41ZM610.124 79.94H621.374V128H610.124V79.94ZM615.794 72.02C613.754 72.02 612.044 71.39 610.664 70.13C609.284 68.81 608.594 67.19 608.594 65.27C608.594 63.35 609.284 61.76 610.664 60.5C612.044 59.18 613.754 58.52 615.794 58.52C617.834 58.52 619.544 59.15 620.924 60.41C622.304 61.61 622.994 63.14 622.994 65C622.994 66.98 622.304 68.66 620.924 70.04C619.604 71.36 617.894 72.02 615.794 72.02ZM658.19 128.63C653.21 128.63 648.74 127.58 644.78 125.48C640.82 123.38 637.73 120.47 635.51 116.75C633.29 112.97 632.18 108.71 632.18 103.97C632.18 99.23 633.29 95 635.51 91.28C637.73 87.56 640.79 84.65 644.69 82.55C648.65 80.45 653.15 79.4 658.19 79.4C662.93 79.4 667.07 80.36 670.61 82.28C674.21 84.2 676.91 86.96 678.71 90.56L670.07 95.6C668.69 93.38 666.95 91.73 664.85 90.65C662.81 89.51 660.56 88.94 658.1 88.94C653.9 88.94 650.42 90.32 647.66 93.08C644.9 95.78 643.52 99.41 643.52 103.97C643.52 108.53 644.87 112.19 647.57 114.95C650.33 117.65 653.84 119 658.1 119C660.56 119 662.81 118.46 664.85 117.38C666.95 116.24 668.69 114.56 670.07 112.34L678.71 117.38C676.85 120.98 674.12 123.77 670.52 125.75C666.98 127.67 662.87 128.63 658.19 128.63ZM715.265 79.4C721.325 79.4 726.185 81.17 729.845 84.71C733.505 88.25 735.335 93.5 735.335 100.46V128H724.085V101.9C724.085 97.7 723.095 94.55 721.115 92.45C719.135 90.29 716.315 89.21 712.655 89.21C708.515 89.21 705.245 90.47 702.845 92.99C700.445 95.45 699.245 99.02 699.245 103.7V128H687.995V61.22H699.245V85.52C701.105 83.54 703.385 82.04 706.085 81.02C708.845 79.94 711.905 79.4 715.265 79.4Z" fill="white"/>
<defs>
<linearGradient id="paint0_linear_95_2" x1="-238.94" y1="93.8455" x2="1018.64" y2="93.8454" gradientUnits="userSpaceOnUse">
<stop stop-color="#F09453"/>
<stop offset="1" stop-color="#6D2F17"/>
</linearGradient>
</defs>
</svg>
